<?xml version="1.0" encoding="utf-8"?>
<!-- Generator: Adobe Illustrator 15.0.0, SVG Export Plug-In . SVG Version: 6.00 Build 0)  -->
<!DOCTYPE svg PUBLIC "-//W3C//DTD SVG 1.1//EN" "http://www.w3.org/Graphics/SVG/1.1/DTD/svg11.dtd">
<svg version="1.1" xmlns="http://www.w3.org/2000/svg" xmlns:xlink="http://www.w3.org/1999/xlink" x="0px" y="0px"
	 width="313.484px" height="225.894px" viewBox="0 0 313.484 225.894" enable-background="new 0 0 313.484 225.894"
	 xml:space="preserve">
<g id="Calque_1">
</g>
<g id="Calque_2">
	<g>
		<path fill="#164194" d="M213.785,56.674c29.18,5.146,48.735,33.073,43.589,62.255c-1.775,10.068-6.256,19.071-12.636,26.299h4.384
			c5.785-7.271,9.851-16.029,11.558-25.716c5.465-31.006-15.31-60.677-46.314-66.143c-20.047-3.535-40.628,3.971-53.715,19.586
			c-0.594,0.712-0.501,1.77,0.21,2.365c0.708,0.595,1.766,0.505,2.363-0.208C175.542,60.412,194.916,53.347,213.785,56.674z"/>
		<path fill="#95254C" d="M271.029,109.563c0,13.101-3.869,25.344-10.502,35.665h0.822c6.557-10.351,10.374-22.584,10.374-35.665
			c0-36.944-30.056-67.002-67.001-67.002c-8.581,0-16.938,1.602-24.837,4.757c-0.178,0.07-0.264,0.272-0.193,0.451
			c0.072,0.178,0.274,0.265,0.452,0.192c7.816-3.12,16.088-4.706,24.579-4.706C241.283,43.255,271.029,73.001,271.029,109.563z"/>
		<path fill="#C61A27" d="M260.596,58.28c0.5,0.541,1.342,0.574,1.881,0.077c0.541-0.5,0.574-1.341,0.076-1.881
			c-5.355-5.801-11.572-10.763-18.473-14.748c-37.502-21.652-85.628-8.754-107.279,28.749c-3.079,5.332-5.524,11-7.272,16.841
			c-0.21,0.706,0.19,1.448,0.894,1.658c0.128,0.038,0.256,0.056,0.383,0.056c0.572,0,1.101-0.374,1.274-0.95
			c1.688-5.646,4.054-11.122,7.027-16.276c20.918-36.231,67.414-48.689,103.645-27.772C249.418,47.885,255.422,52.678,260.596,58.28
			z"/>
		<path fill="#C61A27" d="M232.564,180.394c-7.966,3.119-16.492,4.898-25.286,5.192c-0.735,0.025-1.312,0.64-1.287,1.375
			c0.023,0.719,0.615,1.286,1.33,1.286h0.044c11.214-0.375,22.003-3.088,31.809-7.854H232.564z"/>
		<path fill="#EC6608" d="M292.454,109.554c0,12.373-2.59,24.51-7.561,35.674h1.508c4.889-11.186,7.442-23.311,7.442-35.674
			c0-49.136-39.977-89.11-89.111-89.11c-20.44,0-39.666,6.73-55.596,19.466c-15.466,12.362-26.502,29.711-31.077,48.857
			c-0.09,0.374,0.141,0.748,0.515,0.836c0.371,0.093,0.748-0.142,0.835-0.511c9.462-39.602,44.548-67.258,85.323-67.258
			C253.101,21.834,292.454,61.184,292.454,109.554z"/>
		<path fill="#F7A600" d="M273.722,180.394c-17.001,16.568-40.043,27.011-65.769,27.842c-0.924,0.029-1.653,0.805-1.621,1.73
			c0.03,0.909,0.774,1.625,1.675,1.625c0.019,0,0.037,0,0.056-0.002c26.553-0.856,51.381-11.849,69.91-30.952
			c0.078-0.081,0.153-0.163,0.231-0.244H273.722z"/>
		<path fill="#F7A600" d="M303.417,109.579c0,12.583-2.312,24.602-6.543,35.648h3.511c4.193-11.267,6.387-23.303,6.387-35.648
			c0-56.278-45.786-102.063-102.065-102.063c-23.204,0-45.914,7.995-63.954,22.515c-17.769,14.302-30.373,34.349-35.485,56.443
			c-0.209,0.905,0.353,1.805,1.256,2.016c0.903,0.205,1.805-0.356,2.014-1.257c10.406-44.96,49.951-76.361,96.169-76.361
			C259.135,10.872,303.417,55.151,303.417,109.579z"/>
	</g>
	<g>
		<path fill="#164194" d="M69.317,132.111l-1.905,0.494l-1.783-1.833c-1.059,0.627-2.166,1.089-3.322,1.387
			c-1.156,0.297-2.483,0.446-3.981,0.446c-4.12,0-7.221-1.359-9.305-4.079c-2.084-2.719-3.126-6.76-3.126-12.12
			c0-3.339,0.57-6.27,1.71-8.793c1.139-2.523,2.776-4.463,4.909-5.819c2.133-1.355,4.641-2.034,7.522-2.034
			c1.515,0,2.972,0.082,4.372,0.247c1.4,0.165,2.955,0.451,4.665,0.858v6.466h-2.418c-0.44-1.411-0.961-2.512-1.563-3.304
			c-0.603-0.791-1.323-1.355-2.161-1.693c-0.839-0.337-1.901-0.505-3.188-0.505c-1.775,0-3.33,0.549-4.665,1.646
			c-1.335,1.097-2.374,2.715-3.114,4.855c-0.741,2.14-1.111,4.722-1.111,7.747c0,3.073,0.313,5.698,0.94,7.876
			c0.626,2.179,1.559,3.821,2.796,4.926s2.76,1.658,4.567,1.658c1.921,0,3.346-0.403,4.274-1.211
			c0.928-0.807,1.392-2.049,1.392-3.727v-1.411c0-1.411-0.077-2.43-0.232-3.057c-0.155-0.626-0.427-1.113-0.818-1.458
			c-0.391-0.345-1.034-0.627-1.929-0.847v-1.152h9.867v1.152c-0.586,0.188-1.026,0.404-1.319,0.646
			c-0.293,0.243-0.517,0.545-0.672,0.905c-0.155,0.361-0.261,0.804-0.317,1.329c-0.057,0.525-0.085,1.273-0.085,2.245V132.111z"/>
		<path fill="#164194" d="M82.432,126.351c0,1.348,0.065,2.285,0.195,2.81c0.13,0.525,0.378,0.925,0.745,1.199
			c0.366,0.274,0.964,0.514,1.795,0.717v1.152h-9.696v-1.152c0.814-0.204,1.38-0.416,1.697-0.635
			c0.317-0.219,0.545-0.482,0.684-0.788s0.236-0.721,0.293-1.246c0.057-0.525,0.085-1.211,0.085-2.057v-19.679
			c0-1.505-0.012-2.555-0.037-3.151c-0.024-0.595-0.09-1.101-0.195-1.517c-0.106-0.415-0.253-0.74-0.44-0.976
			c-0.188-0.235-0.439-0.423-0.757-0.564c-0.318-0.141-0.892-0.282-1.722-0.423v-1.223l5.886-0.235h1.465V126.351z"/>
		<path fill="#164194" d="M100.115,132.605c-3.387,0-5.971-0.96-7.754-2.88c-1.783-1.92-2.674-4.761-2.674-8.523
			c0-2.586,0.468-4.773,1.404-6.56c0.936-1.787,2.218-3.115,3.847-3.985c1.628-0.87,3.484-1.305,5.569-1.305
			c3.484,0,6.122,0.976,7.913,2.927c1.791,1.951,2.687,4.753,2.687,8.405c0,2.602-0.448,4.796-1.343,6.583
			c-0.896,1.787-2.166,3.124-3.81,4.009C104.307,132.163,102.362,132.605,100.115,132.605z M94.302,120.708
			c0,3.229,0.533,5.71,1.6,7.442c1.066,1.732,2.593,2.598,4.58,2.598c1.09,0,2.019-0.254,2.784-0.764
			c0.765-0.509,1.388-1.195,1.868-2.057c0.48-0.862,0.826-1.861,1.038-2.998c0.211-1.136,0.317-2.324,0.317-3.562
			c0-2.304-0.265-4.216-0.793-5.737c-0.529-1.521-1.25-2.637-2.162-3.351c-0.912-0.713-1.954-1.07-3.126-1.07
			c-1.97,0-3.48,0.823-4.53,2.469S94.302,117.667,94.302,120.708z"/>
		<path fill="#164194" d="M122.194,113.443l0.098,0.024c1.139-1.144,2.088-1.975,2.845-2.493c0.757-0.517,1.539-0.913,2.345-1.187
			c0.806-0.274,1.689-0.412,2.65-0.412c1.742,0,3.236,0.427,4.481,1.281c1.246,0.854,2.207,2.136,2.882,3.844
			c0.675,1.709,1.014,3.801,1.014,6.278c0,2.555-0.403,4.714-1.209,6.478c-0.806,1.763-1.995,3.096-3.566,3.997
			c-1.572,0.901-3.432,1.352-5.581,1.352c-1.205,0-2.341-0.105-3.407-0.317c-1.067-0.211-2.186-0.583-3.358-1.117l-1.709,1.434
			l-1.686-0.376v-25.557c0-1.505-0.012-2.555-0.037-3.151c-0.024-0.595-0.089-1.101-0.195-1.517
			c-0.106-0.415-0.252-0.74-0.439-0.976c-0.188-0.235-0.439-0.423-0.757-0.564c-0.317-0.141-0.891-0.282-1.722-0.423v-1.223
			l5.911-0.235h1.441V113.443z M122.194,123.765c0,1.208,0.057,2.167,0.171,2.88c0.114,0.713,0.305,1.305,0.574,1.775
			s0.66,0.902,1.172,1.293c0.513,0.392,1.087,0.662,1.722,0.811c0.635,0.149,1.343,0.223,2.125,0.223
			c1.954,0,3.436-0.768,4.445-2.304c1.009-1.536,1.514-3.84,1.514-6.912c0-3.104-0.46-5.435-1.38-6.995
			c-0.92-1.559-2.308-2.339-4.164-2.339c-0.928,0-1.718,0.138-2.369,0.412c-0.651,0.274-1.299,0.702-1.942,1.281
			c-0.644,0.58-1.115,1.152-1.417,1.716c-0.301,0.564-0.452,1.208-0.452,1.928V123.765z"/>
		<path fill="#164194" d="M157.534,128.867l-0.366-0.094c-1.417,1.395-2.748,2.383-3.993,2.962s-2.569,0.87-3.969,0.87
			c-1.237,0-2.329-0.231-3.272-0.693c-0.944-0.462-1.669-1.113-2.174-1.952c-0.505-0.838-0.757-1.806-0.757-2.903
			c0-2.289,1.176-4.056,3.529-5.302s5.882-1.971,10.588-2.175v-1.528c0-1.63-0.163-2.916-0.489-3.856s-0.839-1.63-1.539-2.069
			c-0.7-0.439-1.636-0.658-2.809-0.658c-1.27,0-2.292,0.321-3.065,0.964s-1.355,1.607-1.746,2.892h-3.199v-3.057
			c1.563-0.784,2.865-1.36,3.908-1.728c1.042-0.368,2.084-0.659,3.126-0.87s2.101-0.317,3.175-0.317
			c1.612,0,2.906,0.247,3.883,0.741c0.977,0.494,1.709,1.25,2.198,2.269c0.489,1.019,0.733,2.555,0.733,4.608v8.182
			c0,1.16,0.008,1.979,0.024,2.457c0.016,0.479,0.065,0.921,0.146,1.329s0.204,0.733,0.366,0.976
			c0.163,0.243,0.403,0.451,0.721,0.623c0.317,0.173,0.834,0.353,1.551,0.541v1.152h-6.692L157.534,128.867z M157.119,121.508
			c-3.306,0.031-5.781,0.455-7.425,1.27c-1.645,0.815-2.467,2.045-2.467,3.691c0,0.893,0.187,1.599,0.562,2.116
			c0.375,0.518,0.847,0.874,1.417,1.07c0.57,0.196,1.246,0.294,2.027,0.294c1.107,0,2.113-0.258,3.016-0.776
			c0.904-0.517,1.608-1.175,2.113-1.975c0.504-0.799,0.757-1.59,0.757-2.375V121.508z"/>
		<path fill="#164194" d="M174.362,126.351c0,1.348,0.065,2.285,0.195,2.81c0.13,0.525,0.378,0.925,0.745,1.199
			c0.366,0.274,0.964,0.514,1.795,0.717v1.152h-9.696v-1.152c0.814-0.204,1.38-0.416,1.697-0.635
			c0.317-0.219,0.545-0.482,0.684-0.788s0.236-0.721,0.293-1.246c0.057-0.525,0.085-1.211,0.085-2.057v-19.679
			c0-1.505-0.012-2.555-0.037-3.151c-0.024-0.595-0.09-1.101-0.195-1.517c-0.106-0.415-0.253-0.74-0.44-0.976
			c-0.188-0.235-0.439-0.423-0.757-0.564c-0.318-0.141-0.892-0.282-1.722-0.423v-1.223l5.886-0.235h1.465V126.351z"/>
	</g>
	<g>
		<path fill="#164194" d="M87.77,215.515v-1.176c0.975-0.256,1.627-0.541,1.958-0.853c0.331-0.312,0.546-0.756,0.649-1.333
			c0.102-0.576,0.153-1.456,0.153-2.641v-20.768c0-1.104-0.04-1.909-0.118-2.413c-0.079-0.504-0.208-0.896-0.389-1.176
			c-0.181-0.28-0.421-0.504-0.719-0.672c-0.299-0.168-0.81-0.356-1.533-0.564v-1.177h12.902c2.5,0,4.509,0.272,6.026,0.816
			c1.518,0.544,2.646,1.349,3.385,2.413s1.109,2.437,1.109,4.117c0,1.393-0.264,2.602-0.791,3.625
			c-0.527,1.024-1.214,1.873-2.063,2.545s-1.942,1.296-3.279,1.873v0.216c2.138,0.657,3.758,1.668,4.859,3.037
			s1.651,2.998,1.651,4.886c0,2.177-0.476,3.954-1.427,5.33c-0.952,1.377-2.284,2.373-3.998,2.989s-3.79,0.924-6.227,0.924H87.77z
			 M99.068,197.436c2.39,0,4.218-0.588,5.484-1.765c1.266-1.177,1.899-2.885,1.899-5.126c0-1.104-0.177-2.021-0.531-2.749
			c-0.354-0.729-0.841-1.309-1.462-1.741s-1.356-0.74-2.205-0.924s-1.769-0.276-2.76-0.276c-0.598,0-1.384,0.016-2.359,0.048
			s-1.706,0.064-2.193,0.096v12.437H99.068z M94.94,213.234c1.147,0.112,2.429,0.168,3.845,0.168c2.06,0,3.66-0.264,4.8-0.792
			c1.14-0.528,1.965-1.308,2.477-2.341c0.511-1.032,0.767-2.325,0.767-3.877c0-1.552-0.279-2.833-0.837-3.841
			s-1.419-1.761-2.583-2.257c-1.164-0.496-2.768-0.744-4.812-0.744H94.94V213.234z"/>
		<path fill="#164194" d="M130.368,212.082l-0.354-0.096c-1.368,1.425-2.654,2.433-3.856,3.025
			c-1.203,0.592-2.481,0.889-3.833,0.889c-1.195,0-2.249-0.236-3.161-0.708c-0.912-0.472-1.612-1.136-2.099-1.993
			c-0.488-0.856-0.731-1.845-0.731-2.965c0-2.336,1.136-4.141,3.409-5.414c2.272-1.273,5.68-2.013,10.225-2.221v-1.561
			c0-1.665-0.157-2.977-0.472-3.938c-0.315-0.96-0.81-1.665-1.486-2.113c-0.676-0.448-1.581-0.672-2.712-0.672
			c-1.227,0-2.214,0.329-2.96,0.984c-0.747,0.657-1.309,1.641-1.687,2.953h-3.09v-3.121c1.51-0.8,2.768-1.388,3.774-1.765
			c1.006-0.376,2.013-0.672,3.019-0.888c1.006-0.216,2.029-0.324,3.066-0.324c1.557,0,2.807,0.252,3.75,0.756
			s1.651,1.276,2.123,2.317s0.708,2.609,0.708,4.706v8.355c0,1.185,0.008,2.021,0.024,2.509c0.015,0.488,0.062,0.94,0.142,1.356
			c0.078,0.417,0.196,0.749,0.354,0.997s0.389,0.46,0.696,0.636s0.806,0.36,1.498,0.552v1.176h-6.463L130.368,212.082z
			 M129.967,204.566c-3.192,0.032-5.582,0.464-7.17,1.296c-1.588,0.833-2.382,2.089-2.382,3.77c0,0.913,0.181,1.633,0.542,2.161
			c0.362,0.528,0.817,0.892,1.368,1.092c0.55,0.2,1.203,0.3,1.958,0.3c1.069,0,2.041-0.264,2.913-0.792
			c0.873-0.528,1.553-1.201,2.041-2.017c0.487-0.816,0.731-1.625,0.731-2.425V204.566z"/>
		<path fill="#164194" d="M156.124,197.82h-2.264c-0.346-0.96-0.755-1.716-1.227-2.269s-1.006-0.94-1.604-1.165
			s-1.329-0.336-2.193-0.336c-1.258,0-2.261,0.3-3.007,0.9c-0.747,0.601-1.12,1.421-1.12,2.461c0,0.737,0.149,1.345,0.448,1.825
			c0.299,0.48,0.763,0.929,1.392,1.345c0.629,0.417,1.737,0.969,3.326,1.657c1.604,0.705,2.842,1.353,3.715,1.945
			c0.873,0.592,1.557,1.28,2.052,2.064c0.496,0.785,0.743,1.721,0.743,2.809c0,1.265-0.212,2.329-0.637,3.193
			c-0.425,0.864-1.022,1.569-1.793,2.113c-0.771,0.544-1.687,0.936-2.748,1.176c-1.062,0.24-2.221,0.36-3.479,0.36
			c-1.321,0-2.603-0.1-3.845-0.3c-1.243-0.2-2.453-0.46-3.632-0.78V209.8h2.312c0.424,1.473,1.053,2.542,1.887,3.206
			s1.981,0.996,3.444,0.996c0.566,0,1.12-0.06,1.663-0.18c0.542-0.12,1.026-0.32,1.451-0.6c0.425-0.28,0.763-0.66,1.014-1.14
			c0.251-0.48,0.377-1.081,0.377-1.801c0-0.816-0.157-1.48-0.472-1.993c-0.315-0.512-0.802-0.98-1.462-1.405
			c-0.66-0.424-1.824-0.996-3.491-1.717c-1.431-0.608-2.579-1.2-3.444-1.776s-1.545-1.256-2.04-2.041
			c-0.496-0.784-0.743-1.712-0.743-2.785c0-1.312,0.35-2.453,1.05-3.421c0.699-0.968,1.71-1.708,3.031-2.221s2.87-0.769,4.646-0.769
			c1.038,0,2.041,0.052,3.007,0.156c0.967,0.104,2.182,0.308,3.644,0.612V197.82z"/>
		<path fill="#164194" d="M179.923,211.433c-1.006,1.073-1.931,1.913-2.771,2.521c-0.841,0.608-1.765,1.084-2.771,1.429
			c-1.006,0.344-2.115,0.516-3.326,0.516c-3.24,0-5.685-0.988-7.335-2.965c-1.651-1.977-2.477-4.894-2.477-8.751
			c0-2.385,0.42-4.49,1.262-6.314s2.041-3.233,3.597-4.226c1.557-0.992,3.349-1.489,5.377-1.489c1.588,0,2.94,0.256,4.057,0.769
			c1.116,0.512,2.009,1.212,2.677,2.101c0.668,0.888,1.187,2.009,1.557,3.361c0.369,1.353,0.578,3.117,0.625,5.294h-14.86v0.432
			c0,1.889,0.208,3.478,0.625,4.766c0.416,1.289,1.1,2.297,2.052,3.025c0.951,0.729,2.189,1.092,3.715,1.092
			c1.289,0,2.449-0.244,3.479-0.732c1.03-0.488,2.056-1.284,3.078-2.389L179.923,211.433z M175.961,201.686
			c-0.095-1.729-0.307-3.141-0.637-4.238c-0.33-1.096-0.825-1.937-1.486-2.521c-0.661-0.584-1.525-0.876-2.595-0.876
			c-1.62,0-2.913,0.66-3.88,1.98c-0.967,1.32-1.537,3.205-1.71,5.654H175.961z"/>
		<path fill="#164194" d="M190.938,209.512c0,1.377,0.063,2.333,0.189,2.869c0.125,0.537,0.365,0.945,0.719,1.225
			c0.354,0.28,0.932,0.524,1.734,0.732v1.176h-9.364v-1.176c0.786-0.208,1.333-0.424,1.639-0.648s0.527-0.492,0.661-0.804
			c0.133-0.312,0.228-0.736,0.283-1.272c0.055-0.536,0.083-1.236,0.083-2.101v-20.095c0-1.537-0.012-2.609-0.036-3.217
			c-0.023-0.608-0.086-1.125-0.188-1.549c-0.103-0.424-0.244-0.756-0.425-0.996c-0.181-0.24-0.424-0.432-0.731-0.576
			s-0.861-0.288-1.663-0.432v-1.249l5.685-0.24h1.415V209.512z"/>
	</g>
	<line fill="none" x1="176.322" y1="132.229" x2="42.988" y2="132.105"/>
	<line fill="none" x1="9.79" y1="167.706" x2="156.742" y2="168.444"/>
	<line fill="none" x1="191.287" y1="155.91" x2="338.233" y2="156.65"/>
	<g>
		<path fill="#164194" d="M18.528,168.109c0,1.069,0.035,1.851,0.105,2.345c0.07,0.495,0.188,0.886,0.352,1.173
			s0.406,0.526,0.727,0.718s0.84,0.383,1.559,0.574v1.173h-9.893v-1.173c0.969-0.255,1.617-0.538,1.946-0.85
			c0.328-0.311,0.542-0.753,0.645-1.328c0.102-0.574,0.152-1.452,0.152-2.632v-20.701c0-1.101-0.039-1.903-0.117-2.405
			s-0.208-0.894-0.387-1.173c-0.18-0.279-0.418-0.502-0.715-0.67s-0.805-0.355-1.523-0.562v-1.173h9.893v1.173
			c-0.688,0.176-1.184,0.351-1.489,0.526c-0.305,0.176-0.547,0.395-0.727,0.658s-0.313,0.658-0.398,1.185
			c-0.086,0.527-0.129,1.34-0.129,2.441V168.109z"/>
		<path fill="#164194" d="M49.216,174.092h-9.237v-1.173c0.609-0.191,1.047-0.359,1.313-0.502c0.266-0.144,0.488-0.343,0.668-0.598
			c0.18-0.255,0.32-0.65,0.422-1.185s0.152-1.344,0.152-2.429v-6.27c0-1.117-0.031-2.13-0.094-3.04
			c-0.062-0.909-0.168-1.655-0.316-2.237s-0.328-1.037-0.539-1.364c-0.211-0.327-0.461-0.606-0.75-0.837s-0.621-0.415-0.996-0.551
			c-0.375-0.135-0.868-0.203-1.477-0.203s-1.188,0.124-1.735,0.371c-0.547,0.248-1.149,0.674-1.805,1.281s-1.133,1.205-1.43,1.794
			c-0.297,0.591-0.445,1.269-0.445,2.034v8.927c0,1.373,0.062,2.326,0.188,2.86c0.125,0.535,0.363,0.941,0.715,1.221
			c0.352,0.279,0.926,0.522,1.723,0.729v1.173h-9.19v-1.173c0.61-0.191,1.043-0.359,1.301-0.502s0.477-0.343,0.656-0.598
			c0.18-0.255,0.32-0.646,0.422-1.173c0.101-0.526,0.152-1.348,0.152-2.465v-10.434c0-1.021-0.016-1.843-0.047-2.465
			c-0.032-0.622-0.141-1.121-0.329-1.496c-0.188-0.375-0.473-0.654-0.855-0.837c-0.383-0.183-0.926-0.339-1.629-0.467v-1.269
			l5.486-0.215h1.43l-0.258,3.901l0.328,0.096c1.156-1.196,2.09-2.05,2.802-2.561c0.711-0.51,1.43-0.905,2.157-1.185
			c0.727-0.279,1.496-0.419,2.309-0.419c0.844,0,1.598,0.1,2.262,0.299c0.664,0.2,1.25,0.507,1.758,0.921
			c0.508,0.415,0.926,0.93,1.254,1.543c0.328,0.614,0.574,1.352,0.738,2.214c0.165,0.861,0.247,1.955,0.247,3.278v9.022
			c0,1.101,0.031,1.899,0.094,2.393c0.062,0.495,0.171,0.878,0.328,1.149c0.156,0.271,0.383,0.499,0.68,0.682
			s0.812,0.379,1.547,0.586V174.092z"/>
		<path fill="#164194" d="M65.229,153.631h-5.603v14.479c0,1.069,0.05,1.875,0.152,2.417c0.102,0.542,0.25,0.954,0.445,1.232
			c0.195,0.279,0.453,0.503,0.774,0.67c0.32,0.167,0.832,0.331,1.536,0.49v1.173h-9.589v-1.173c0.688-0.191,1.18-0.375,1.477-0.55
			c0.297-0.175,0.527-0.398,0.691-0.67c0.164-0.271,0.285-0.662,0.364-1.173c0.078-0.51,0.117-1.316,0.117-2.417v-14.479h-2.837
			v-1.221c0.594-0.096,0.988-0.171,1.184-0.228c0.195-0.056,0.383-0.139,0.562-0.251c0.18-0.111,0.336-0.271,0.469-0.479
			s0.25-0.515,0.352-0.921c0.102-0.407,0.184-0.977,0.247-1.711c0.141-1.739,0.449-3.151,0.926-4.236
			c0.477-1.085,1.172-2.01,2.086-2.776c0.915-0.766,1.891-1.304,2.931-1.616c1.039-0.311,2.262-0.466,3.669-0.466
			c1.234,0,2.282,0.088,3.142,0.263v4.332h-2.321c-0.297-0.941-0.645-1.607-1.043-1.999c-0.398-0.391-0.958-0.586-1.676-0.586
			c-0.516,0-0.95,0.072-1.301,0.215s-0.676,0.367-0.973,0.67c-0.297,0.303-0.551,0.71-0.762,1.221s-0.367,1.145-0.469,1.902
			c-0.102,0.758-0.152,1.743-0.152,2.956v2.513h5.603V153.631z"/>
		<path fill="#164194" d="M74.043,155.186l0.328,0.072c0.859-1.068,1.656-1.91,2.391-2.524s1.528-1.089,2.38-1.424
			c0.852-0.335,1.817-0.502,2.895-0.502c0.906,0,1.727,0.048,2.462,0.144v5.504H81.85c-0.375-0.861-0.773-1.487-1.195-1.878
			c-0.422-0.391-1-0.586-1.735-0.586c-0.563,0-1.122,0.167-1.676,0.502c-0.555,0.335-1.09,0.822-1.606,1.46
			c-0.516,0.638-0.872,1.236-1.067,1.795s-0.293,1.22-0.293,1.986v8.376c0,1.452,0.086,2.453,0.258,3.003s0.457,0.954,0.856,1.208
			c0.398,0.255,0.996,0.455,1.793,0.598v1.173h-9.448v-1.173c0.594-0.191,1.02-0.359,1.278-0.502s0.48-0.343,0.668-0.598
			c0.188-0.255,0.329-0.646,0.422-1.173c0.094-0.526,0.141-1.348,0.141-2.465v-10.434c0-1.021-0.016-1.843-0.047-2.465
			c-0.032-0.622-0.141-1.121-0.329-1.496c-0.188-0.375-0.473-0.654-0.855-0.837c-0.383-0.183-0.926-0.339-1.629-0.467v-1.245
			l5.486-0.239h1.43L74.043,155.186z"/>
		<path fill="#164194" d="M100.301,170.67l-0.352-0.096c-1.36,1.42-2.638,2.425-3.833,3.016c-1.196,0.59-2.466,0.885-3.81,0.885
			c-1.188,0-2.235-0.235-3.141-0.706c-0.907-0.47-1.603-1.132-2.087-1.986c-0.484-0.853-0.727-1.838-0.727-2.956
			c0-2.329,1.129-4.128,3.388-5.396c2.258-1.269,5.646-2.006,10.163-2.214v-1.555c0-1.659-0.157-2.968-0.469-3.925
			c-0.312-0.958-0.805-1.659-1.477-2.106c-0.672-0.447-1.571-0.67-2.696-0.67c-1.219,0-2.2,0.327-2.942,0.981
			s-1.301,1.635-1.676,2.943h-3.071v-3.111c1.5-0.798,2.75-1.384,3.751-1.759c1-0.375,2-0.67,3.001-0.885
			c1-0.215,2.016-0.323,3.047-0.323c1.547,0,2.79,0.251,3.728,0.754c0.938,0.502,1.641,1.272,2.11,2.31
			c0.469,1.037,0.703,2.601,0.703,4.69v8.328c0,1.181,0.008,2.015,0.023,2.501c0.015,0.487,0.062,0.938,0.141,1.352
			c0.078,0.415,0.195,0.746,0.352,0.993c0.156,0.248,0.387,0.459,0.692,0.634c0.305,0.176,0.801,0.359,1.488,0.55v1.173h-6.423
			L100.301,170.67z M99.902,163.179c-3.173,0.032-5.549,0.463-7.127,1.292c-1.579,0.83-2.368,2.082-2.368,3.757
			c0,0.909,0.18,1.627,0.54,2.154c0.359,0.526,0.812,0.89,1.359,1.089c0.547,0.2,1.196,0.299,1.946,0.299
			c1.063,0,2.028-0.263,2.896-0.79c0.868-0.526,1.543-1.196,2.028-2.01c0.484-0.813,0.727-1.619,0.727-2.417V163.179z"/>
		<path fill="#164194" d="M125.901,156.455h-2.25c-0.344-0.957-0.75-1.711-1.219-2.262c-0.469-0.55-1-0.937-1.594-1.161
			c-0.594-0.223-1.321-0.335-2.18-0.335c-1.25,0-2.247,0.299-2.989,0.897s-1.113,1.416-1.113,2.453c0,0.734,0.148,1.34,0.445,1.819
			s0.758,0.925,1.383,1.34c0.625,0.416,1.727,0.966,3.306,1.651c1.594,0.703,2.825,1.349,3.692,1.938
			c0.867,0.591,1.547,1.277,2.04,2.058c0.492,0.782,0.738,1.715,0.738,2.8c0,1.26-0.211,2.321-0.633,3.183
			c-0.422,0.862-1.016,1.564-1.782,2.106c-0.766,0.543-1.676,0.934-2.731,1.173c-1.055,0.239-2.208,0.359-3.458,0.359
			c-1.312,0-2.587-0.1-3.821-0.299c-1.235-0.2-2.438-0.458-3.61-0.778v-5.002h2.298c0.422,1.468,1.047,2.533,1.875,3.195
			c0.828,0.662,1.969,0.993,3.422,0.993c0.563,0,1.114-0.06,1.653-0.179c0.54-0.12,1.02-0.319,1.442-0.599
			c0.422-0.279,0.758-0.658,1.008-1.137c0.25-0.479,0.375-1.077,0.375-1.795c0-0.813-0.156-1.476-0.469-1.986
			c-0.313-0.51-0.797-0.977-1.454-1.4c-0.656-0.422-1.813-0.993-3.47-1.711c-1.422-0.606-2.563-1.197-3.423-1.771
			c-0.86-0.574-1.536-1.252-2.028-2.034s-0.738-1.707-0.738-2.776c0-1.308,0.347-2.444,1.043-3.41
			c0.695-0.965,1.7-1.703,3.013-2.213s2.852-0.766,4.618-0.766c1.032,0,2.028,0.052,2.989,0.156c0.961,0.104,2.168,0.307,3.622,0.61
			V156.455z"/>
		<path fill="#164194" d="M129.417,152.41c0.782-0.127,1.415-0.351,1.899-0.67c0.484-0.319,0.863-0.73,1.137-1.232
			c0.273-0.503,0.488-1.133,0.645-1.891c0.156-0.758,0.32-1.863,0.492-3.315h3.329v5.911h7.572v2.417h-7.572v10.649
			c0,1.548,0.062,2.78,0.188,3.697c0.125,0.918,0.359,1.636,0.703,2.154c0.344,0.519,0.734,0.89,1.172,1.113
			c0.438,0.224,1,0.335,1.688,0.335c0.625,0,1.211-0.132,1.758-0.395c0.547-0.263,1.086-0.642,1.618-1.137l1.055,1.292
			c-1.11,1.101-2.161,1.898-3.153,2.393c-0.993,0.494-2.021,0.742-3.083,0.742c-2.016,0-3.517-0.61-4.501-1.831
			c-0.984-1.221-1.477-3.131-1.477-5.732v-13.282h-3.47V152.41z"/>
		<path fill="#164194" d="M153.401,155.186l0.328,0.072c0.859-1.068,1.656-1.91,2.391-2.524s1.528-1.089,2.38-1.424
			c0.852-0.335,1.817-0.502,2.895-0.502c0.906,0,1.727,0.048,2.462,0.144v5.504h-2.649c-0.375-0.861-0.773-1.487-1.195-1.878
			c-0.422-0.391-1-0.586-1.735-0.586c-0.563,0-1.122,0.167-1.676,0.502c-0.555,0.335-1.09,0.822-1.606,1.46
			c-0.516,0.638-0.872,1.236-1.067,1.795s-0.293,1.22-0.293,1.986v8.376c0,1.452,0.086,2.453,0.258,3.003s0.457,0.954,0.856,1.208
			c0.398,0.255,0.996,0.455,1.793,0.598v1.173h-9.448v-1.173c0.594-0.191,1.02-0.359,1.278-0.502s0.48-0.343,0.668-0.598
			c0.188-0.255,0.329-0.646,0.422-1.173c0.094-0.526,0.141-1.348,0.141-2.465v-10.434c0-1.021-0.016-1.843-0.047-2.465
			c-0.032-0.622-0.141-1.121-0.329-1.496c-0.188-0.375-0.473-0.654-0.855-0.837c-0.383-0.183-0.926-0.339-1.629-0.467v-1.245
			l5.486-0.239h1.43L153.401,155.186z"/>
		<path fill="#164194" d="M166.365,151.213h6.682v12.182c0,1.867,0.07,3.287,0.211,4.26s0.352,1.707,0.633,2.202
			s0.68,0.909,1.196,1.244c0.516,0.335,1.227,0.503,2.133,0.503c0.594,0,1.164-0.12,1.711-0.359c0.547-0.24,1.156-0.658,1.829-1.257
			c0.672-0.598,1.152-1.192,1.442-1.783c0.289-0.59,0.434-1.276,0.434-2.058v-8.975c0-0.909-0.023-1.595-0.07-2.058
			c-0.047-0.462-0.125-0.833-0.234-1.113c-0.109-0.279-0.238-0.506-0.387-0.682c-0.149-0.175-0.36-0.335-0.633-0.479
			s-0.715-0.295-1.324-0.455v-1.173h6.681v16.346c0,1.229,0.023,2.114,0.07,2.656c0.047,0.542,0.148,0.973,0.305,1.292
			c0.156,0.319,0.398,0.578,0.727,0.778s0.914,0.387,1.758,0.562v1.245l-5.369,0.239h-1.43l0.141-3.925l-0.352-0.096
			c-1.297,1.436-2.536,2.489-3.716,3.159c-1.18,0.67-2.364,1.005-3.552,1.005c-1.422,0-2.595-0.287-3.517-0.861
			c-0.922-0.575-1.61-1.432-2.063-2.573c-0.454-1.141-0.68-2.748-0.68-4.822v-9.046c0-1.34-0.051-2.261-0.152-2.764
			c-0.102-0.503-0.297-0.901-0.586-1.197c-0.29-0.295-0.918-0.57-1.887-0.826V151.213z"/>
		<path fill="#164194" d="M210.909,151.764v5.001h-2.978c-0.266-1.037-0.594-1.854-0.984-2.453c-0.391-0.599-0.844-1.018-1.36-1.257
			s-1.157-0.359-1.922-0.359c-1.094,0-2.063,0.359-2.907,1.077c-0.844,0.718-1.512,1.811-2.004,3.278
			c-0.492,1.468-0.738,3.263-0.738,5.385c0,1.356,0.094,2.597,0.281,3.721c0.188,1.125,0.508,2.086,0.961,2.884
			c0.453,0.798,1.055,1.42,1.805,1.867c0.75,0.447,1.68,0.67,2.79,0.67c1.079,0,2.083-0.215,3.013-0.646
			c0.93-0.431,1.895-1.188,2.895-2.273l1.336,1.58c-0.797,0.894-1.5,1.583-2.11,2.07s-1.262,0.894-1.958,1.22
			c-0.696,0.327-1.383,0.566-2.063,0.718c-0.68,0.151-1.418,0.227-2.216,0.227c-2.954,0-5.212-1.001-6.775-3.003
			c-1.563-2.002-2.345-4.894-2.345-8.675c0-2.361,0.438-4.455,1.313-6.282c0.875-1.827,2.102-3.235,3.681-4.224
			s3.399-1.484,5.462-1.484c1.281,0,2.465,0.076,3.552,0.228C208.725,151.186,209.814,151.429,210.909,151.764z"/>
		<path fill="#164194" d="M213.206,152.41c0.782-0.127,1.415-0.351,1.899-0.67c0.484-0.319,0.863-0.73,1.137-1.232
			c0.273-0.503,0.488-1.133,0.645-1.891c0.156-0.758,0.32-1.863,0.492-3.315h3.329v5.911h7.572v2.417h-7.572v10.649
			c0,1.548,0.062,2.78,0.188,3.697c0.125,0.918,0.359,1.636,0.703,2.154c0.344,0.519,0.734,0.89,1.172,1.113
			c0.438,0.224,1,0.335,1.688,0.335c0.625,0,1.211-0.132,1.758-0.395c0.547-0.263,1.086-0.642,1.618-1.137l1.055,1.292
			c-1.11,1.101-2.161,1.898-3.153,2.393c-0.993,0.494-2.021,0.742-3.083,0.742c-2.016,0-3.517-0.61-4.501-1.831
			c-0.984-1.221-1.477-3.131-1.477-5.732v-13.282h-3.47V152.41z"/>
		<path fill="#164194" d="M230.297,151.213h6.682v12.182c0,1.867,0.07,3.287,0.211,4.26s0.352,1.707,0.633,2.202
			s0.68,0.909,1.196,1.244c0.516,0.335,1.227,0.503,2.133,0.503c0.594,0,1.164-0.12,1.711-0.359c0.547-0.24,1.156-0.658,1.829-1.257
			c0.672-0.598,1.152-1.192,1.442-1.783c0.289-0.59,0.434-1.276,0.434-2.058v-8.975c0-0.909-0.023-1.595-0.07-2.058
			c-0.047-0.462-0.125-0.833-0.234-1.113c-0.109-0.279-0.238-0.506-0.387-0.682c-0.149-0.175-0.36-0.335-0.633-0.479
			s-0.715-0.295-1.324-0.455v-1.173h6.681v16.346c0,1.229,0.023,2.114,0.07,2.656c0.047,0.542,0.148,0.973,0.305,1.292
			c0.156,0.319,0.398,0.578,0.727,0.778s0.914,0.387,1.758,0.562v1.245l-5.369,0.239h-1.43l0.141-3.925l-0.352-0.096
			c-1.297,1.436-2.536,2.489-3.716,3.159c-1.18,0.67-2.364,1.005-3.552,1.005c-1.422,0-2.595-0.287-3.517-0.861
			c-0.922-0.575-1.61-1.432-2.063-2.573c-0.454-1.141-0.68-2.748-0.68-4.822v-9.046c0-1.34-0.051-2.261-0.152-2.764
			c-0.102-0.503-0.297-0.901-0.586-1.197c-0.29-0.295-0.918-0.57-1.887-0.826V151.213z"/>
		<path fill="#164194" d="M263.705,155.186l0.328,0.072c0.859-1.068,1.656-1.91,2.391-2.524s1.528-1.089,2.38-1.424
			c0.852-0.335,1.817-0.502,2.895-0.502c0.906,0,1.727,0.048,2.462,0.144v5.504h-2.649c-0.375-0.861-0.773-1.487-1.195-1.878
			c-0.422-0.391-1-0.586-1.735-0.586c-0.563,0-1.122,0.167-1.676,0.502c-0.555,0.335-1.09,0.822-1.606,1.46
			c-0.516,0.638-0.872,1.236-1.067,1.795s-0.293,1.22-0.293,1.986v8.376c0,1.452,0.086,2.453,0.258,3.003s0.457,0.954,0.856,1.208
			c0.398,0.255,0.996,0.455,1.793,0.598v1.173h-9.448v-1.173c0.594-0.191,1.02-0.359,1.278-0.502s0.48-0.343,0.668-0.598
			c0.188-0.255,0.329-0.646,0.422-1.173c0.094-0.526,0.141-1.348,0.141-2.465v-10.434c0-1.021-0.016-1.843-0.047-2.465
			c-0.032-0.622-0.141-1.121-0.329-1.496c-0.188-0.375-0.473-0.654-0.855-0.837c-0.383-0.183-0.926-0.339-1.629-0.467v-1.245
			l5.486-0.239h1.43L263.705,155.186z"/>
		<path fill="#164194" d="M295.26,170.024c-1,1.069-1.919,1.907-2.755,2.513c-0.836,0.606-1.754,1.081-2.754,1.424
			c-1,0.343-2.103,0.515-3.306,0.515c-3.22,0-5.65-0.985-7.291-2.956c-1.641-1.97-2.462-4.878-2.462-8.723
			c0-2.377,0.418-4.475,1.254-6.294c0.836-1.819,2.028-3.223,3.575-4.212s3.329-1.484,5.345-1.484c1.579,0,2.922,0.255,4.032,0.766
			s1.997,1.208,2.661,2.094c0.664,0.886,1.18,2.002,1.547,3.351c0.367,1.348,0.574,3.107,0.621,5.277h-14.77v0.431
			c0,1.883,0.207,3.466,0.621,4.75c0.414,1.285,1.094,2.29,2.04,3.016s2.176,1.089,3.692,1.089c1.282,0,2.434-0.243,3.458-0.73
			c1.023-0.486,2.043-1.28,3.06-2.381L295.26,170.024z M291.322,160.308c-0.094-1.723-0.305-3.131-0.633-4.224
			c-0.328-1.092-0.82-1.93-1.477-2.513c-0.656-0.582-1.516-0.874-2.579-0.874c-1.61,0-2.896,0.658-3.856,1.975
			c-0.961,1.316-1.528,3.195-1.7,5.636H291.322z"/>
	</g>
</g>
</svg>
